<?xml version="1.0" encoding="UTF-8"?>
<svg id="Layer_1" xmlns="http://www.w3.org/2000/svg" version="1.1" xmlns:serif="http://www.serif.com/" viewBox="0 0 2000 2000">
  <!-- Generator: Adobe Illustrator 30.0.0, SVG Export Plug-In . SVG Version: 2.1.1 Build 123)  -->
  <defs>
    <style>
      .st0 {
        fill: #fff;
      }
    </style>
  </defs>
  <g id="Layer_1-2">
    <path class="st0" d="M986.41,744.93c-61.01.33-110.74,50.97-110.74,112.68s50.07,112.35,110.74,112.68c63,0,110.74-48.63,110.74-113.02s-49.74-112.01-110.74-112.35h0ZM986.41,913.95c-29.84,0-53.05-24.48-53.05-56.01,0-27.5,21.22-56.68,53.05-56.68s52.39,29.51,52.39,57.01c.33,31.19-22.88,55.67-52.39,55.67Z"/>
    <path class="st0" d="M1592.51,1193.65c-23.21,0-33.49-17.77-33.49-57.68v-41.59h40.78v-56.34h-32.82c-4.31,0-7.96-3.69-7.96-8.05v-49.97s-59.68,0-59.68,0v168.02c0,20.46,1.99,50.3,19.56,71.77,16.25,18.78,39.46,29.51,63.99,29.85h16.58v-56.34l-6.96.34h0Z"/>
    <path class="st0" d="M1796.76,1067.89c-16.25-18.78-39.46-29.51-63.99-29.85h-36.47c-4.31,0-7.96-3.69-7.96-8.05v-77.47h-59.68v297.47h59.68v-155.61h34.81c23.21,0,33.49,17.77,33.49,57.68v97.93h59.68v-110c0-20.79-1.99-50.64-19.56-72.1Z"/>
    <path class="st0" d="M1288.46,781.82c-16.25-18.78-39.46-29.51-63.99-29.85h-103.78v211.95h59.68v-155.94h34.81c23.21,0,33.49,17.77,33.49,57.68v97.93h59.68v-110c-.33-20.46-2.65-50.3-19.89-71.77h0Z"/>
    <path class="st0" d="M1369.37,1038.04v211.95h59.68v-147.56c0-4.36,3.65-8.05,7.96-8.05h32.83v-56.34h-100.47Z"/>
    <path class="st0" d="M1229.44,1031c-61.01.34-111.41,50.97-111.41,113.02s47.08,112.35,107.1,112.35c20.56,0,47.08-11.07,55.04-26.16v19.79h59.68s0-109.33,0-109.33c.33-60.7-49.4-109.67-110.41-109.67h0ZM1229.44,1200.02c-29.84,0-53.05-24.48-53.05-56.01,0-27.5,21.22-56.68,53.05-56.68s52.39,29.51,52.39,57.01c0,31.19-22.88,55.67-52.39,55.67Z"/>
    <path class="st0" d="M1026.53,1183.26c-9.28,12.74-24.21,19.79-39.79,19.45-22.55,0-42.44-13.42-47.41-36.22l155.84.33c1.66-7.71,2.32-15.76,2.32-23.81-.33-61.37-50.4-111.34-111.07-111.34s-111.08,50.64-111.08,112.35,50.07,112.35,111.08,112.35h.33c46.42.67,88.53-28.51,104.44-72.77h-64.65v-.34h0ZM986.41,1083.99c22.55,0,42.44,13.42,47.41,36.22h-94.83c4.97-22.81,24.87-36.22,47.41-36.22Z"/>
    <path class="st0" d="M1482.43,897.19c-9.28,12.74-24.21,19.79-39.79,19.45-22.55,0-42.44-13.42-47.41-36.22l155.84.34c1.66-7.71,2.32-15.76,2.32-23.81-.33-61.37-50.4-111.34-111.08-111.34s-111.08,50.64-111.08,112.35c0,61.71,50.07,112.35,111.08,112.35h.33c46.42.67,88.53-28.51,104.44-72.78h-64.65v-.33h0ZM1442.64,797.92c22.55,0,42.44,13.42,47.41,36.22h-94.83c4.97-22.81,24.87-36.22,47.41-36.22h0Z"/>
  </g>
  <path class="st0" d="M377.65,1381.12C169.43,1381.12,0,1210.75,0,1000.48s169.43-381.98,377.65-381.98,377.66,171.37,377.66,381.98c-.33,210.28-169.76,380.64-377.66,380.64M377.65,654.38c-188.66,0-342.18,154.94-342.18,346.1s153.18,346.1,342.18,346.1,341.18-155.95,341.18-346.1c-.33-190.15-153.52-346.1-341.18-346.1"/>
  <path class="st0" d="M377.65,1297.61c-162.47,0-294.43-133.48-294.43-297.81s131.96-297.81,294.43-297.81,294.43,133.48,294.43,297.81c-.33,164.33-132.3,297.81-294.43,297.81M377.65,737.22c-143.23,0-258.95,117.04-258.95,261.92s115.72,261.92,258.95,261.92,258.95-117.04,258.95-261.92c-.33-143.87-116.05-261.92-258.95-261.92"/>
  <path class="st0" d="M590.85,976.67c-11.27-109-102.45-193.84-213.2-193.84s-201.92,84.85-213.53,194.18h426.72v-.33h0Z"/>
  <path class="st0" d="M164.13,1022.95c11.27,109,102.45,194.18,213.53,194.18s201.93-84.85,213.53-194.18H164.13h0Z"/>
</svg>