<svg width="100%" height="100%" viewBox="0 0 3471 1559" version="1.1" xmlns="http://www.w3.org/2000/svg" xmlns:xlink="http://www.w3.org/1999/xlink" xml:space="preserve" xmlns:serif="http://www.serif.com/" style="fill-rule: evenodd; clip-rule: evenodd; stroke-linejoin: round; stroke-miterlimit: 2;" class=""><g><g id="Layer_1-2"><path d="M1711.91,336.825c-105.88,0.579 -192.196,88.467 -192.196,195.562c-0,107.092 86.891,194.98 192.196,195.563c109.333,0 192.195,-84.396 192.195,-196.146c0,-106.512 -86.316,-194.4 -192.195,-194.979Zm-0,293.342c-51.788,-0 -92.067,-42.488 -92.067,-97.2c-0,-47.725 36.825,-98.363 92.067,-98.363c54.666,0 90.92,51.221 90.92,98.946c0.575,54.129 -39.708,96.617 -90.92,96.617Z" style="fill-rule: nonzero;"/><path d="M2763.8,1115.58c-40.279,0 -58.117,-30.846 -58.117,-100.108l0.001,-72.171l70.775,-0l-0,-97.783l-56.967,-0c-7.479,-0 -13.809,-6.4 -13.809,-13.967l0.001,-86.725l-103.58,0l0,291.6c0,35.504 3.45,87.304 33.95,124.554c28.196,32.592 68.475,51.217 111.059,51.8l28.77,0l0,-97.783l-12.083,0.583Z" style="fill-rule: nonzero;"/><path d="M3118.27,897.317c-28.196,-32.592 -68.475,-51.217 -111.058,-51.8l-63.296,-0c-7.484,-0 -13.813,-6.4 -13.813,-13.967l0,-134.45l-103.579,-0l-0,516.262l103.579,0l0,-270.062l60.421,-0c40.279,-0 58.117,30.846 58.117,100.108l-0,169.954l103.579,0l-0,-190.908c-0,-36.083 -3.45,-87.887 -33.95,-125.137Z" style="fill-rule: nonzero;"/><path d="M2236.13,400.846c-28.196,-32.592 -68.479,-51.217 -111.058,-51.8l-180.112,-0l-0,367.841l103.579,0l-0,-270.641l60.421,-0c40.279,-0 58.116,30.846 58.116,100.108l0,169.954l103.579,0l0,-190.908c-0.575,-35.504 -4.604,-87.304 -34.525,-124.554Z" style="fill-rule: nonzero;"/><path d="M2376.54,845.517l-0,367.845l103.579,0l-0,-256.095c-0,-7.567 6.329,-13.967 13.808,-13.967l56.971,-0l-0,-97.783l-174.358,-0Z" style="fill-rule: nonzero;"/><path d="M2133.7,833.296c-105.879,0.583 -193.346,88.467 -193.346,196.141c0,109.425 81.713,194.984 185.867,194.984c35.675,-0 81.712,-19.209 95.521,-45.4l-0,34.341l103.579,0.001l-0,-189.742c0.575,-105.35 -85.742,-190.325 -191.621,-190.325Zm0,293.342c-51.787,-0 -92.067,-42.488 -92.067,-97.2c0,-47.725 36.825,-98.363 92.067,-98.363c54.667,0 90.921,51.221 90.921,98.946c0,54.129 -39.704,96.617 -90.921,96.617Z" style="fill-rule: nonzero;"/><path d="M1781.54,1097.54c-16.113,22.116 -42.009,34.337 -69.054,33.758c-39.13,-0 -73.655,-23.284 -82.288,-62.859l270.454,0.58c2.879,-13.388 4.029,-27.355 4.029,-41.325c-0.575,-106.509 -87.466,-193.234 -192.77,-193.234c-105.88,0 -192.771,87.888 -192.771,194.979c-0,107.096 86.891,194.984 192.771,194.984l0.575,-0c80.562,1.162 153.641,-49.475 181.262,-126.3l-112.208,-0l-0,-0.584Zm-69.629,-172.283c39.129,0 73.654,23.284 82.287,62.863l-164.575,-0c8.633,-39.579 43.158,-62.863 82.288,-62.863Z" style="fill-rule: nonzero;"/><path d="M2572.76,601.067c-16.113,22.116 -42.009,34.337 -69.055,33.758c-39.129,-0 -73.654,-23.283 -82.287,-62.863l270.454,0.584c2.879,-13.388 4.029,-27.354 4.029,-41.325c-0.575,-106.509 -87.466,-193.234 -192.771,-193.234c-105.879,0 -192.771,87.888 -192.771,194.98c0.001,107.096 86.892,194.983 192.771,194.983l0.575,0c80.563,1.163 153.642,-49.475 181.263,-126.304l-112.208,-0l-0,-0.579Zm-69.055,-172.284c39.13,0 73.655,23.284 82.288,62.863l-164.575,-0c8.633,-39.579 43.158,-62.863 82.287,-62.863Z" style="fill-rule: nonzero;"/></g><path d="M655.417,1440.93c-361.371,0 -655.417,-295.67 -655.417,-660.604c0,-365.512 294.046,-662.929 655.417,-662.929c361.375,-0 655.421,297.417 655.421,662.929c-0.575,364.934 -294.621,660.604 -655.421,660.604m-0,-1261.26c-327.421,0 -593.846,268.9 -593.846,600.654c-0,331.175 265.85,600.659 593.846,600.659c327.425,-0 592.121,-270.646 592.121,-600.659c-0.575,-330.008 -266.426,-600.654 -592.121,-600.654" style="fill-rule: nonzero;"/><path d="M655.417,1296.01c-281.959,0 -510.984,-231.646 -510.984,-516.841c0,-285.196 229.025,-516.842 510.984,-516.842c281.962,-0 510.987,231.646 510.987,516.842c-0.575,285.195 -229.6,516.841 -510.987,516.841m-0,-972.571c-248.584,0 -449.413,203.13 -449.413,454.567c0,251.433 200.829,454.563 449.413,454.563c248.587,-0 449.416,-203.13 449.416,-454.563c-0.579,-249.692 -201.404,-454.567 -449.416,-454.567" style="fill-rule: nonzero;"/><path d="M1025.42,739.008c-19.563,-189.162 -177.808,-336.416 -370.004,-336.416c-192.192,-0 -350.438,147.254 -370.575,336.995l740.579,0l-0,-0.579Z" style="fill-rule: nonzero;"/><path d="M284.842,819.325c19.562,189.163 177.808,336.996 370.575,336.996c192.196,-0 350.441,-147.254 370.579,-336.996l-741.154,0Z" style="fill-rule: nonzero;"/></g></svg>