<?xml version="1.0" encoding="utf-8"?>
<svg xmlns="http://www.w3.org/2000/svg" width="112" height="108" viewBox="0 0 112 108" fill="none">
<path d="M63.9877 6.60095C64.2182 6.82873 64.9499 8.66418 65.1336 9.05702C65.8586 10.5954 66.921 11.2721 67.4288 12.8369C67.8598 14.1705 68.4511 14.7614 68.9589 15.8607C69.3531 16.719 70.3587 18.8615 70.489 19.6406C70.5859 20.2117 70.352 21.0436 70.489 21.5288C70.5458 21.7368 71.1973 22.0768 71.2541 22.2848C71.391 22.7734 71.1538 23.6086 71.2541 24.1731C71.2775 24.3051 71.5681 24.3876 71.6349 24.5494C71.7953 24.9323 71.2875 25.2657 72.4 25.1172V25.8732C73.429 25.9161 74.1105 26.8965 75.2664 26.6291C75.4134 26.5961 75.4936 26.2957 75.6473 26.2528C75.8912 26.1835 76.1985 26.332 76.4123 26.2528C76.5593 26.2 76.6362 25.9458 76.7932 25.8765C78.1963 25.2525 81.6107 23.5755 82.339 22.2881C82.9237 21.2515 82.5061 22.0405 83.6787 21.7203C84.397 21.5255 85.5095 19.3368 85.9738 19.0761C87.0028 18.4984 86.3447 18.5215 86.5485 18.3201C86.5886 18.2805 87.4104 17.9702 87.504 17.9438C87.7812 17.8645 88.3793 18.023 88.4594 17.9438C88.5296 17.8744 88.3592 17.5542 88.4594 17.376C89.0842 16.2701 89.759 16.6134 90.5642 16.4318C90.7045 16.3988 90.9617 15.8277 91.7101 16.0555C91.9139 16.1149 92.0375 16.6365 92.6656 16.4318C92.4551 17.0392 93.023 17.2274 93.0464 17.376C93.1667 18.056 92.9061 18.9968 93.0464 19.6439C93.16 20.1687 94.3326 21.3043 94.5765 21.9118C95.2614 23.6053 94.777 25.6751 94.9574 27.5799C94.9707 27.7152 95.3215 27.8175 95.3382 27.9562C95.4084 28.5042 95.4285 29.7091 95.3382 30.2241C95.3149 30.3561 95.0242 30.4387 94.9574 30.6004C94.797 30.9834 95.3048 31.3168 94.1923 31.1682C94.4362 32.6934 93.8315 33.8884 93.4273 35.1362C92.4451 38.1766 90.8983 41.4349 89.9862 44.5842C89.9294 44.7756 89.004 45.35 89.2212 45.5283C89.896 45.2345 90.4172 45.8815 90.5608 45.9046C92.4685 46.2216 94.4964 46.1093 96.2971 46.6606C98.198 47.2416 100.884 47.4628 103.179 48.1725C103.884 48.3904 104.372 47.5849 105.09 47.7962C105.304 47.8589 105.645 48.4961 105.855 48.5522C107.302 48.945 108.08 47.8226 109.487 49.4963C109.537 49.5557 109.417 49.767 109.487 49.8726C110.015 50.6979 111.428 50.3612 111.017 52.1405C110.987 52.2792 110.703 52.3551 110.636 52.5169C110.549 52.7215 110.703 53.0187 110.636 53.0847C110.566 53.154 110.242 52.9856 110.061 53.0847C109.196 53.5633 107.098 57.5809 106.811 58.5646C106.737 58.8188 105.862 59.347 105.665 59.6969C105.277 60.3836 105.287 60.1426 104.9 60.8292C104.345 61.813 103.33 62.2685 102.414 62.5293C102.017 62.6416 100.319 64.3615 100.119 64.4176C96.581 65.4476 93.8983 67.2533 90.5575 68.1974C89.4751 68.5044 87.4338 68.6233 87.691 69.7094C86.5084 69.6103 85.5228 70.5347 84.25 70.4653L85.3959 73.2977C87.24 76.2952 89.3681 79.0847 92.4718 81.0423C93.2168 81.5143 92.9061 81.8874 93.0464 82.366C93.1567 82.7424 94.8572 83.8879 94.9574 84.2543C95.0442 84.5712 94.8772 85.0499 94.9574 85.3866C94.9908 85.5352 95.3149 85.621 95.3382 85.7629C95.5955 87.1527 95.0309 87.7634 93.9986 88.5953C93.7647 88.7835 92.2079 90.0743 92.0876 90.1073C91.7635 90.1964 91.2657 90.0214 90.9417 90.1073C90.6878 90.1766 90.347 90.3483 89.7958 90.4836C89.3481 90.5925 86.9059 91.2858 86.7356 91.2396C83.9794 90.4902 79.5928 91.4905 76.0281 90.8632C74.5882 90.609 72.7006 90.9326 71.057 90.4869C70.8632 90.4341 70.5558 89.8696 70.2919 89.7309C68.6248 88.8429 66.627 88.4402 64.9365 87.8427C64.3652 87.638 63.7472 86.8094 62.8318 87.0867C63.1325 87.7469 62.4676 88.2883 62.4509 88.4105C62.3507 89.0938 62.6079 90.1106 62.4509 90.6784C62.3774 90.9458 61.3785 91.5466 61.305 91.8107C61.0511 92.7185 61.4019 94.8015 61.305 95.9668C61.2482 96.6238 60.6435 97.7594 60.9242 98.9907C61.0845 99.7005 61.1447 100.169 61.305 100.879C61.5021 101.75 61.1614 104.939 60.9242 105.791C60.8707 105.983 60.3061 106.286 60.1591 106.547C60.0589 106.725 60.2293 107.042 60.1591 107.115C60.0555 107.217 58.2014 107.055 57.6735 107.115C57.5332 107.131 57.4296 107.481 57.2927 107.491C55.6924 107.64 54.316 107.366 52.8961 107.115V106.359L50.6009 105.983C50.4072 104.547 49.1243 103.659 48.3058 102.394C47.7813 101.585 46.8659 102.163 47.1599 101.07H46.014V99.9381C44.2266 99.0171 42.1219 96.9341 42.1887 94.6497H41.4236V93.5174H40.6586C40.5249 92.0946 39.0049 89.9818 38.7476 88.7934C38.5973 88.1068 38.4369 86.4331 38.3668 85.7695C38.1897 84.1751 39.0049 81.8147 36.262 82.5575C35.674 82.716 34.4245 84.5217 33.3956 84.0694V84.8254C32.2797 85.1951 30.6561 85.5451 29.9545 86.5255C29.0358 87.813 27.1615 88.833 26.1292 90.3053C25.4644 91.2561 26.0357 91.1372 24.7895 92.0054C24.3886 92.286 24.0245 92.9133 23.6436 93.1377C23.5601 93.1873 23.3797 93.0849 23.2628 93.1377C23.0957 93.2137 23.0155 93.4844 22.8819 93.5141C21.0912 93.9102 19.5578 93.1741 18.4854 91.814C18.6023 91.0151 17.894 90.1139 17.7203 89.5461C17.2325 87.9648 17.2225 85.7035 17.3394 83.878C17.3495 83.7459 17.7103 83.6337 17.7203 83.5016C17.894 81.2106 17.7036 77.8897 18.4854 75.9453C19.1468 74.3013 19.6246 75.3775 19.2504 73.301C18.9865 71.8485 20.3295 68.6464 20.7805 67.2566C21.1447 66.1276 21.6592 65.2429 22.3106 64.2327C22.5913 63.797 23.2761 63.6451 23.0757 62.909L20.971 62.5326C19.9921 61.4762 18.629 62.7736 17.5299 62.5326C16.9218 62.3973 16.4474 61.4961 15.2347 61.7767C12.1712 62.4831 7.49063 61.4267 3.38138 62.153C3.20432 62.186 2.76667 62.7769 1.85127 62.5293C0.935882 62.2817 0.989335 59.5682 0.130737 58.9409V58.185C0.942564 57.089 1.22988 55.6299 2.4259 54.7848V54.4084C3.25109 53.3752 3.61858 52.1604 3.95601 51.0082C4.07294 50.6055 5.05515 50.2259 5.48612 48.7403C5.52287 48.6116 6.95943 46.8191 7.20665 46.6606C7.30688 46.5979 8.6499 45.9244 8.73676 45.9046C9.09424 45.8254 9.97956 46.0004 10.0764 45.9046C10.1466 45.8353 9.97622 45.5151 10.0764 45.3368C10.5241 44.5413 11.3827 43.333 12.3716 43.6367V42.8808C13.003 43.0755 13.0832 42.6035 13.3271 42.5044C13.6679 42.3658 14.2291 42.6992 14.6668 41.9366C15.4251 40.6195 16.4374 41.0156 17.9174 40.6129C18.2415 40.5237 19.1168 39.1934 19.4475 39.1009C20.3328 38.85 21.3217 38.893 22.1235 38.7246C22.5445 38.6355 23.53 37.6253 23.6537 37.5923C24.3853 37.3942 27.4422 37.8003 27.6694 37.5923C27.8364 36.635 27.1515 36.6845 26.7139 36.46C25.1737 35.671 25.9355 34.5717 24.4187 33.4361C23.196 32.5217 22.2405 31.1484 20.9776 30.7919C20.6101 30.6863 17.7571 26.6324 16.3873 25.8798C16.2069 25.7807 15.8862 25.9491 15.8127 25.8798C15.7292 25.7972 15.8995 25.1997 15.8127 24.9356C15.6757 24.5263 14.7369 23.3808 14.6668 23.0474C14.3628 21.6642 14.924 20.3008 16.0065 19.459L17.9174 19.0827C18.3885 18.8021 19.7315 18.4059 20.2126 18.3267C23.657 17.7556 30.5993 17.6037 33.9802 18.3267C34.1105 18.3531 34.9958 19.053 35.1261 19.0827C35.9747 19.2642 37.0571 18.6832 37.6117 19.6505C37.7119 19.8287 37.5416 20.1456 37.6117 20.2183C37.7821 20.3866 40.5583 20.073 41.2432 20.2183C42.3891 20.4625 44.5072 22.3277 45.0685 22.4862C45.309 22.5555 45.6064 22.4135 45.8335 22.4862C46.1676 22.5918 46.4783 23.1068 47.3637 22.8625C47.8381 22.7338 47.8848 21.9877 47.9383 21.9184C48.1788 21.5783 49.0241 21.0006 49.0842 20.7861C49.2713 20.1192 48.9439 18.911 49.0842 18.1418C49.1109 18.0032 49.4216 17.9173 49.4651 17.7655C50.4874 14.1969 50.8782 10.8396 51.376 7.18525L50.611 5.67332C51.3326 5.19135 50.6544 4.26702 51.376 3.78505L50.611 2.27312C51.209 2.02553 50.8983 1.04508 50.9918 0.949348C51.0586 0.883325 51.3593 1.03518 51.5664 0.949348C51.7335 0.880024 51.8137 0.596124 51.9473 0.573015C52.7591 0.431065 56.11 0.431065 56.9185 0.573015C57.0621 0.599425 57.149 0.913035 57.2993 0.949348L59.2103 1.32568C59.4976 1.77464 60.8373 2.69897 60.9308 3.02578C61.1747 3.86098 62.6714 6.20481 63.4164 6.61415C63.5968 6.71319 63.9176 6.54483 63.9911 6.61415L63.9877 6.60095Z" fill="#7FCD80"/>
</svg>